<?xml version="1.0" encoding="utf-8"?>
<!-- Generator: Adobe Illustrator 22.0.1, SVG Export Plug-In . SVG Version: 6.00 Build 0)  -->
<svg version="1.1" id="Слой_1" xmlns="http://www.w3.org/2000/svg" xmlns:xlink="http://www.w3.org/1999/xlink" x="0px" y="0px"
	 viewBox="0 0 7275.9 2742.2" style="enable-background:new 0 0 7275.9 2742.2;" xml:space="preserve">
<style type="text/css">
	.st0{fill:none;stroke:#BE6571;stroke-width:217.2248;stroke-linecap:round;stroke-linejoin:round;stroke-miterlimit:10;}
	.st1{fill:none;stroke:#EFEFEF;stroke-width:217.2248;stroke-linecap:round;stroke-linejoin:round;stroke-miterlimit:10;}
	.st2{fill:#EFEFEF;}
	.st3{fill:#BE6571;}
</style>
<g>
	<g>
		<g>
			<g>
				<defs>
					<path id="SVGID_1_" d="M993.2,1433.4h-0.3c-55.2,0-100-44.8-100-100c0-55.2,44.8-100,100-100h0.3V1433.4z"/>
				</defs>
				<clipPath id="SVGID_2_">
					<use xlink:href="#SVGID_1_"  style="overflow:visible;"/>
				</clipPath>
				<g style="clip-path:url(#SVGID_2_);">
					
						<image style="overflow:visible;" width="401" height="200" xlink:href="26124517.png"  transform="matrix(1 0 0 1 592.9287 1233.3909)"/>
				</g>
			</g>
			
				<image style="overflow:visible;" width="886.6" height="1264.4" xlink:href="26124515.png"  transform="matrix(1 0 0 1 738.4544 701.2043)"/>
			<g>
				<defs>
					<path id="SVGID_3_" d="M738.8,1433.4h-0.3c-55.2,0-100-44.8-100-100c0-55.2,44.8-100,100-100h0.3V1433.4z"/>
				</defs>
				<clipPath id="SVGID_4_">
					<use xlink:href="#SVGID_3_"  style="overflow:visible;"/>
				</clipPath>
				<g style="clip-path:url(#SVGID_4_);">
					
						<image style="overflow:visible;" width="401" height="200" xlink:href="2612451B.png"  transform="matrix(1 0 0 1 338.4707 1233.3909)"/>
				</g>
			</g>
		</g>
	</g>
	<line class="st0" x1="1869.4" y1="2213" x2="492.2" y2="2213"/>
	<g>
		<line class="st1" x1="492.2" y1="701" x2="1180.8" y2="258"/>
		<line class="st1" x1="1869.4" y1="701" x2="1180.8" y2="258"/>
	</g>
	<path class="st2" d="M1953.5,1390.5c159.4,0,289.8,132.8,289.8,289.8c0,159.4-130.4,293.4-289.8,293.4c-159.4,0-291-134-291-293.4
		C1662.5,1523.4,1794.2,1390.5,1953.5,1390.5z M1953.5,1801.1c64,0,115.9-55.5,115.9-120.7c0-64-51.9-118.3-115.9-118.3
		c-65.2,0-117.1,54.3-117.1,118.3C1836.4,1745.6,1888.3,1801.1,1953.5,1801.1z"/>
	<path class="st2" d="M2483.7,1390.5c159.4,0,289.8,132.8,289.8,289.8c0,159.4-130.4,293.4-289.8,293.4c-159.4,0-291-134-291-293.4
		C2192.6,1523.4,2324.3,1390.5,2483.7,1390.5z M2483.7,1801.1c64,0,115.9-55.5,115.9-120.7c0-64-51.9-118.3-115.9-118.3
		c-65.2,0-117.1,54.3-117.1,118.3C2366.5,1745.6,2418.4,1801.1,2483.7,1801.1z"/>
	<path class="st2" d="M2755.3,1429.2c0-15.7,10.9-26.6,26.6-26.6h53.1c9.7,0,19.3,6,22.9,15.7l22.9,56.7
		c36.2-36.2,82.1-84.5,172.7-84.5c77.3,0,114.7,29,165.4,84.5c29-31.4,80.9-84.5,176.3-84.5c171.5,0,228.2,124.4,228.2,282.6v260.8
		c0,14.5-12.1,26.6-26.6,26.6h-130.4c-15.7,0-26.6-12.1-26.6-26.6v-269.3c0-56.7-16.9-102.6-82.1-102.6c-48.3,0-78.5,38.6-78.5,93
		v278.9c0,14.5-9.7,26.6-25.4,26.6h-131.6c-14.5,0-26.6-12.1-26.6-26.6v-269.3c0-56.7-9.7-102.6-71.2-102.6
		c-56.8,0-85.7,38.6-85.7,95.4v276.5c0,14.5-13.3,26.6-26.6,26.6h-130.4c-15.7,0-26.6-12.1-26.6-26.6V1429.2z"/>
	<path class="st2" d="M3890.4,1390.5c141.3,0,264.5,107.5,264.5,260.8c0,8.4-1.2,27.8-2.4,36.2c-1.2,14.5-14.5,24.1-26.6,24.1
		h-344.2c0,43.5,39.8,96.6,115.9,96.6c36.2,0,82.1-18.1,106.3-35c12.1-10.9,26.6-10.9,35,0l61.6,80.9c8.4,10.9,10.9,27.8-1.2,39.8
		c-48.3,49.5-118.3,79.7-206.5,79.7c-166.6,0-292.2-119.5-292.2-292.2C3600.6,1524.6,3725,1390.5,3890.4,1390.5z M3966.5,1605.5
		c-2.4-37.4-33.8-68.8-80.9-68.8c-45.9,0-76.1,31.4-83.3,68.8H3966.5z"/>
	<path class="st2" d="M4130.7,1429.2c0-15.7,12.1-26.6,26.6-26.6h58c14.5,0,21.7,7.2,25.4,16.9l25.4,61.6
		c24.2-44.7,66.4-90.6,138.9-90.6c50.7,0,88.1,13.3,108.7,29c9.7,7.2,9.7,19.3,3.6,30.2l-55.5,109.9c-6,10.9-15.7,19.3-31.4,13.3
		c-9.7-3.6-30.2-8.5-42.3-8.5c-42.3,0-73.7,30.2-73.7,77.3v292.2c0,16.9-9.7,26.6-30.2,26.6h-126.8c-14.5,0-26.6-12.1-26.6-26.6
		V1429.2z"/>
	<path class="st2" d="M4460.4,1927.9c-12.1-7.2-15.7-16.9-9.7-29l44.7-91.8c3.6-9.6,16.9-18.1,29-12.1c44.7,21.7,86.9,35,137.7,35
		c36.2,0,42.3-13.3,42.3-26.6c0-18.1-30.2-32.6-95.4-58c-107.5-42.3-163-91.8-163-181.1c0-100.2,66.4-173.9,211.3-173.9
		c72.5,0,148.5,20.5,190.8,42.3c14.5,7.2,21.7,21.7,14.5,36.2l-43.5,89.4c-3.6,9.7-18.1,14.5-29,9.7
		c-37.4-18.1-85.7-33.8-130.4-33.8c-31.4,0-39.8,8.4-39.8,22.9s22.9,26.6,62.8,41.1c112.3,41,204.1,85.7,204.1,198
		c0,96.6-78.5,177.5-227,177.5C4569.1,1973.8,4496.6,1949.6,4460.4,1927.9z"/>
	<path class="st3" d="M4898.7,1138.2c0-12.1,10.9-22.9,22.9-22.9h143.7c13.3,0,22.9,10.9,22.9,22.9v304.3h345.4v-304.3
		c0-12.1,9.7-22.9,22.9-22.9h143.7c12.1,0,22.9,10.9,22.9,22.9v799.4c0,12.1-10.9,22.9-22.9,22.9h-143.7
		c-13.3,0-22.9-10.9-22.9-22.9V1620h-345.4v317.6c0,12.1-9.7,22.9-22.9,22.9h-143.7c-12.1,0-22.9-10.9-22.9-22.9V1138.2z"/>
	<path class="st2" d="M5660.7,1429.2c0-15.7,12.1-26.6,25.4-26.6h131.6c14.5,0,26.6,10.9,26.6,26.6v275.3
		c0,62.8,18.1,96.6,74.9,96.6c54.3,0,76.1-37.4,76.1-86.9v-285c0-22.9,16.9-26.6,30.2-26.6h126.8c14.5,0,26.6,10.9,26.6,26.6v504.8
		c0,14.5-12.1,26.6-26.6,26.6h-55.5c-12.1,0-21.7-9.7-26.6-19.3l-19.3-51.9c-33.8,35-93,84.5-176.3,84.5
		c-163,0-213.7-107.5-213.7-265.7V1429.2z"/>
	<path class="st2" d="M6194.5,1141.8c0-13.3,12.1-26.6,26.6-26.6h130.4c14.5,0,26.6,13.3,26.6,26.6v285
		c18.1-14.5,72.5-36.2,129.2-36.2c148.5,0,276.5,94.2,276.5,291c0,159.4-118.3,292.2-275.3,292.2c-123.2,0-188.4-86.9-188.4-86.9
		l-15.7,45.9c-4.8,15.7-15.7,27.8-29,27.8H6221c-14.5,0-26.6-12.1-26.6-26.6V1141.8z M6483,1798.7c66.4,0,117.1-49.5,117.1-118.3
		c0-67.6-50.7-115.9-117.1-115.9c-68.8,0-118.3,48.3-118.3,115.9C6364.7,1749.2,6414.2,1798.7,6483,1798.7z"/>
	<g>
		<path class="st2" d="M2648.5,2005.8c0-4,3-7.6,8.1-7.6h6.5c3.5,0,7.6,3.5,7.6,7.6v143.5c7.1-7.6,34.7-36.3,80.1-36.3
			c60.9,0,87.1,37.8,87.1,102.7v127.4c0,4-3.5,7.6-7.6,7.6h-7.1c-4,0-7.6-3.5-7.6-7.6v-127.4c0-53.9-21.2-81.1-66-81.1
			s-72.5,34.8-79.1,42.8v165.7c0,5-2.5,7.6-7.6,7.6h-8.1c-4.5,0-6.5-3.5-6.5-7.6V2005.8z"/>
		<path class="st2" d="M3021.7,2200.7c26.7,0,53.9,8.6,59.9,10.6c0-51.4-6.5-77.6-52.4-77.6c-38.3,0-65,14.1-69.5,15.6
			c-5,2-8.1,0-9.1-3.5l-2.5-7.1c-2.5-4.5,0.5-7.1,3-8.6c1.5-1,31.2-17.1,80.1-17.1c70.5,0,72.5,41.3,72.5,101.2v128.9
			c0,4-4,7.6-8.1,7.6h-4c-4,0-6.5-2-7.1-6.5l-2.5-21.2c-14.6,14.6-44.8,33.2-81.6,33.2c-43.3,0-75.5-29.2-75.5-77.1
			C2925,2234.4,2960.8,2200.7,3021.7,2200.7z M3003.1,2334.6c35.3,0,67.5-21.2,78.6-35.3v-67c-7.6-3.5-32.2-12.1-59.9-12.1
			c-44.3,0-75,24.2-75,58.4C2946.7,2312,2970.8,2334.6,3003.1,2334.6z"/>
		<path class="st2" d="M3233.7,2463.1c0,4-4.5,7.6-8.1,7.6h-6.5c-4.5,0-7.6-3.5-7.6-7.6v-337.4c0-5,4-7.6,8.1-7.6h3c4,0,6,1.5,6.5,6
			l2,16.1c7.1-5.5,35.8-27.2,78.6-27.2c64.5,0,110.3,52.9,110.3,120.9c0,68.5-48.3,122.4-115.8,122.4c-38.8,0-64-18.6-70.5-24.2
			V2463.1z M3303.7,2334.6c56.4,0,94.2-44.3,94.2-101.2c0-53.9-35.8-98.7-89.1-98.7c-44.8,0-72,26.7-75,30.7v141
			C3236.7,2309.5,3264.4,2334.6,3303.7,2334.6z"/>
		<path class="st2" d="M3536.4,2463.1c0,4-4.5,7.6-8.1,7.6h-6.5c-4.5,0-7.6-3.5-7.6-7.6v-337.4c0-5,4-7.6,8.1-7.6h3c4,0,6,1.5,6.5,6
			l2,16.1c7.1-5.5,35.8-27.2,78.6-27.2c64.5,0,110.3,52.9,110.3,120.9c0,68.5-48.3,122.4-115.8,122.4c-38.8,0-64-18.6-70.5-24.2
			V2463.1z M3606.4,2334.6c56.4,0,94.2-44.3,94.2-101.2c0-53.9-35.8-98.7-89.1-98.7c-44.8,0-72,26.7-75,30.7v141
			C3539.4,2309.5,3567.1,2334.6,3606.4,2334.6z"/>
		<path class="st2" d="M3788.7,2127.6c-2-5-1.5-9.6,3.5-9.6h10.6c3.5,0,6.5,1.5,8.1,5.5l82.1,200.9h1.5l85.6-200.9
			c1.5-4,4.5-5.5,7.6-5.5h11.1c5.5,0,6,4.5,3.5,9.6l-145.5,338.4c-1.5,3-5,4.5-7.6,4.5h-11.6c-5,0-7.1-2.5-4.5-8.1l48.3-112.3
			L3788.7,2127.6z"/>
		<path class="st2" d="M4227.4,2139.7h-28.2c-6,0-7.6-3-7.6-7.6v-8.1c0-4.5,3-6,7.6-6h28.2v-63.5c0-4.5,3.5-7.1,8.1-7.6l6.5-0.5
			c4-0.5,7.6,3.5,7.6,7.6v64h82.1c5,0,8.1,3.5,8.1,7.6v6.5c0,4.5-3,7.6-8.1,7.6h-82.1v152.1c0,30.2,5,42.8,31.7,42.8
			c25.7,0,46.3-14.1,53.4-18.6c5.5-3,7.6-0.5,9.1,2l4,7.1c2,4,1,6.5-2,9.1c-8.6,6.5-35.8,22.2-67.5,22.2
			c-43.3,0-50.9-28.7-50.9-61.9V2139.7z"/>
		<path class="st2" d="M4525.5,2113c65,0,116.8,54.9,116.8,120.9c0,68-51.9,122.4-116.8,122.4c-66.5,0-116.8-54.4-116.8-122.4
			C4408.7,2167.9,4459,2113,4525.5,2113z M4525.5,2334.6c51.9,0,93.2-44.8,93.2-100.7c0-54.4-41.3-99.2-93.2-99.2
			c-52.9,0-94.7,44.8-94.7,99.2C4430.8,2289.8,4472.6,2334.6,4525.5,2334.6z"/>
		<path class="st2" d="M4736,2125.6c0-4,3-7.6,7.6-7.6h4c3.5,0,5,2,5.5,6l3,24.7c6.5-8.6,30.2-35.8,77.1-35.8
			c35.8,0,56.4,15.1,72,41.3c7.1-9.1,33.7-41.3,81.6-41.3c63.5,0,84.1,42.8,84.1,102.7v127.4c0,4-3,7.6-7.6,7.6h-8.6
			c-3.5,0-6-2.5-6-7.6v-127.4c0-53.9-20.1-81.1-64-81.1c-43.3,0-64.5,31.7-72,40.8c3.5,12.1,4.5,24.7,4.5,40.3v127.4
			c0,4-4,7.6-7.6,7.6h-7.6c-4.5,0-7.1-2.5-7.1-7.6v-127.4c0-53.9-20.6-81.1-64.5-81.1c-47.3,0-70,34.8-72.5,39.8v168.7
			c0,5-2.5,7.6-7.6,7.6h-8.1c-4.5,0-6.5-3.5-6.5-7.6V2125.6z"/>
		<path class="st2" d="M5278.9,2113c65,0,116.8,54.9,116.8,120.9c0,68-51.9,122.4-116.8,122.4c-66.5,0-116.8-54.4-116.8-122.4
			C5162.1,2167.9,5212.4,2113,5278.9,2113z M5278.9,2334.6c51.9,0,93.2-44.8,93.2-100.7c0-54.4-41.3-99.2-93.2-99.2
			c-52.9,0-94.7,44.8-94.7,99.2C5184.2,2289.8,5226,2334.6,5278.9,2334.6z"/>
		<path class="st2" d="M5489.4,2125.6c0-4,3-7.6,7.6-7.6h3.5c3.5,0,6,2,6.5,6.5l2.5,23.7c6-8.1,30.7-35.3,74-35.3
			c18.6,0,31.7,5,36.3,6.5c5,1.5,7.6,6,6,10.6l-3,9.1c-1.5,4.5-5.5,5-9.6,3c-2.5-1.5-15.1-7.6-31.2-7.6c-45.3,0-69,36.3-70.5,39.8
			v168.7c0,5-2.5,7.6-7.6,7.6h-8.1c-4.5,0-6.5-3.5-6.5-7.6V2125.6z"/>
		<path class="st2" d="M5703,2125.6c0-4,3-7.6,7.6-7.6h3.5c3.5,0,6,2,6.5,6.5l2.5,23.7c6-8.1,30.7-35.3,74-35.3
			c18.6,0,31.7,5,36.3,6.5c5,1.5,7.6,6,6,10.6l-3,9.1c-1.5,4.5-5.5,5-9.6,3c-2.5-1.5-15.1-7.6-31.2-7.6c-45.3,0-69,36.3-70.5,39.8
			v168.7c0,5-2.5,7.6-7.6,7.6h-8.1c-4.5,0-6.5-3.5-6.5-7.6V2125.6z"/>
		<path class="st2" d="M6007.6,2113c65,0,116.8,54.9,116.8,120.9c0,68-51.9,122.4-116.8,122.4c-66.5,0-116.8-54.4-116.8-122.4
			C5890.8,2167.9,5941.2,2113,6007.6,2113z M6007.6,2334.6c51.9,0,93.2-44.8,93.2-100.7c0-54.4-41.3-99.2-93.2-99.2
			c-52.9,0-94.7,44.8-94.7,99.2C5913,2289.8,5954.8,2334.6,6007.6,2334.6z"/>
		<path class="st2" d="M6192,2127.6c-1.5-5.5-1.5-9.6,3.5-9.6h11.1c3.5,0,6.5,1,7.6,5.5L6269,2311h1l70.5-192.9c1.5-4,3-5,7.1-5h2
			c3,0,5.5,1.5,7.1,5l69.5,192.9h1l55.4-187.3c1-4.5,5-5.5,7.6-5.5h11.6c5,0,5,4,3,9.6l-69.5,223.1c-1,4-3,5.5-7.1,5.5h-2
			c-3,0-6-2-7.6-5.5l-69.5-198.4h-1l-70,198.4c-1,3.5-3.5,5.5-7.1,5.5h-2c-3.5,0-6-1-7.6-5.5L6192,2127.6z"/>
		<path class="st2" d="M6577.7,2322l4.5-8.1c2-3.5,6.5-4,10.6-1c6,5,30.7,22.7,63.5,22.7c35.3,0,57.9-17.1,57.9-41.8
			c0-26.7-28.2-39.3-67.5-53.9c-40.8-14.6-69.5-30.7-69.5-67.5c0-25.2,21.2-59.4,74.5-59.4c30.7,0,53.9,10.6,65.5,17.6
			c3.5,2.5,5,6.5,3,10.6l-3,5.5c-2,4-6,4-10.1,2c-5.5-3-30.7-15.1-55.4-15.1c-36.8,0-52.4,20.6-52.4,38.3
			c0,23.2,23.2,35.8,57.4,48.3c43.3,16.1,79.6,29.2,79.6,73.5c0,35.3-33.2,62.4-80.1,62.4c-39.3,0-63.5-16.1-76-25.7
			C6577.7,2328.6,6575.7,2325.6,6577.7,2322z"/>
	</g>
</g>
</svg>
