<?xml version="1.0" encoding="utf-8"?>
<!-- Generator: Adobe Illustrator 22.0.1, SVG Export Plug-In . SVG Version: 6.00 Build 0)  -->
<svg version="1.1" id="Слой_1" xmlns="http://www.w3.org/2000/svg" xmlns:xlink="http://www.w3.org/1999/xlink" x="0px" y="0px"
	 viewBox="0 0 7275.9 2742.2" style="enable-background:new 0 0 7275.9 2742.2;" xml:space="preserve">
<style type="text/css">
	.st0{fill:none;stroke:#BE6571;stroke-width:227.5806;stroke-linecap:round;stroke-linejoin:round;stroke-miterlimit:10;}
	.st1{fill:none;stroke:#444355;stroke-width:227.5806;stroke-linecap:round;stroke-linejoin:round;stroke-miterlimit:10;}
	.st2{fill:#444355;}
	.st3{fill:#BE6571;}
</style>
<g>
	<g>
		<g>
			<g>
				<defs>
					<path id="SVGID_1_" d="M867.1,1437.7h-0.3c-57.9,0-104.8-46.9-104.8-104.8c0-57.9,46.9-104.8,104.8-104.8h0.3V1437.7z"/>
				</defs>
				<clipPath id="SVGID_2_">
					<use xlink:href="#SVGID_1_"  style="overflow:visible;"/>
				</clipPath>
				<g style="clip-path:url(#SVGID_2_);">
					
						<image style="overflow:visible;" width="420" height="209.5" xlink:href="2B314B23.png"  transform="matrix(1 0 0 1 447.7624 1228.2142)"/>
				</g>
			</g>
			
				<image style="overflow:visible;" width="928.9" height="1324.6" xlink:href="2B314B21.png"  transform="matrix(1 0 0 1 600.2258 670.6564)"/>
			<g>
				<defs>
					<path id="SVGID_3_" d="M600.6,1437.7h-0.3c-57.9,0-104.8-46.9-104.8-104.8c0-57.9,46.9-104.8,104.8-104.8h0.3V1437.7z"/>
				</defs>
				<clipPath id="SVGID_4_">
					<use xlink:href="#SVGID_3_"  style="overflow:visible;"/>
				</clipPath>
				<g style="clip-path:url(#SVGID_4_);">
					
						<image style="overflow:visible;" width="420" height="209.5" xlink:href="2B314B27.png"  transform="matrix(1 0 0 1 181.1735 1228.2142)"/>
				</g>
			</g>
		</g>
	</g>
	<line class="st0" x1="1785.1" y1="2254.5" x2="342.2" y2="2254.5"/>
	<g>
		<line class="st1" x1="342.2" y1="670.5" x2="1063.6" y2="206.3"/>
		<line class="st1" x1="1785.1" y1="670.5" x2="1063.6" y2="206.3"/>
	</g>
	<g>
		<path class="st2" d="M1873.2,1392.9c167,0,303.6,139.2,303.6,303.6c0,167-136.6,307.4-303.6,307.4c-167,0-304.9-140.4-304.9-307.4
			C1568.3,1532,1706.3,1392.9,1873.2,1392.9z M1873.2,1823c67,0,121.5-58.2,121.5-126.5c0-67.1-54.4-124-121.5-124
			c-68.3,0-122.7,56.9-122.7,124C1750.5,1764.8,1804.9,1823,1873.2,1823z"/>
		<path class="st2" d="M2428.6,1392.9c167,0,303.6,139.2,303.6,303.6c0,167-136.6,307.4-303.6,307.4c-167,0-304.9-140.4-304.9-307.4
			C2123.7,1532,2261.6,1392.9,2428.6,1392.9z M2428.6,1823c67,0,121.5-58.2,121.5-126.5c0-67.1-54.4-124-121.5-124
			c-68.3,0-122.7,56.9-122.7,124C2305.9,1764.8,2360.3,1823,2428.6,1823z"/>
		<path class="st2" d="M2713.3,1433.3c0-16.4,11.4-27.8,27.8-27.8h55.7c10.1,0,20.2,6.3,24,16.5l24,59.4c38-37.9,86-88.6,180.9-88.6
			c81,0,120.2,30.4,173.3,88.6c30.4-32.9,84.8-88.6,184.7-88.6c179.6,0,239.1,130.3,239.1,296v273.3c0,15.2-12.7,27.8-27.8,27.8
			h-136.6c-16.4,0-27.8-12.7-27.8-27.8V1680c0-59.4-17.7-107.5-86-107.5c-50.6,0-82.2,40.5-82.2,97.4v292.2
			c0,15.2-10.1,27.8-26.6,27.8h-137.9c-15.2,0-27.8-12.7-27.8-27.8V1680c0-59.4-10.1-107.5-74.6-107.5c-59.5,0-89.8,40.5-89.8,99.9
			v289.7c0,15.2-13.9,27.8-27.8,27.8h-136.6c-16.4,0-27.8-12.7-27.8-27.8V1433.3z"/>
		<path class="st2" d="M3902.5,1392.9c148,0,277.1,112.6,277.1,273.3c0,8.8-1.3,29.1-2.5,38c-1.3,15.2-15.2,25.3-27.8,25.3h-360.6
			c0,45.6,41.7,101.2,121.4,101.2c38,0,86-19,111.3-36.7c12.7-11.4,27.8-11.4,36.7,0l64.5,84.8c8.8,11.4,11.4,29.1-1.3,41.7
			c-50.6,51.9-124,83.5-216.3,83.5c-174.6,0-306.2-125.2-306.2-306.2C3598.8,1533.3,3729.2,1392.9,3902.5,1392.9z M3982.2,1618.1
			c-2.5-39.2-35.4-72.1-84.8-72.1c-48.1,0-79.7,32.9-87.3,72.1H3982.2z"/>
		<path class="st2" d="M4154.2,1433.3c0-16.4,12.7-27.8,27.8-27.8h60.7c15.2,0,22.8,7.6,26.6,17.7l26.6,64.5
			c25.3-46.8,69.6-94.9,145.5-94.9c53.1,0,92.3,13.9,113.9,30.4c10.1,7.6,10.1,20.2,3.8,31.6l-58.2,115.1
			c-6.3,11.4-16.4,20.2-32.9,13.9c-10.1-3.8-31.6-8.9-44.3-8.9c-44.3,0-77.2,31.6-77.2,81v306.2c0,17.7-10.1,27.8-31.6,27.8h-132.8
			c-15.2,0-27.8-12.7-27.8-27.8V1433.3z"/>
		<path class="st2" d="M4499.6,1955.8c-12.7-7.6-16.5-17.7-10.1-30.4l46.8-96.2c3.8-10.1,17.7-19,30.4-12.6
			c46.8,22.8,91.1,36.7,144.2,36.7c37.9,0,44.3-13.9,44.3-27.8c0-19-31.6-34.2-100-60.7c-112.6-44.3-170.8-96.2-170.8-189.8
			c0-105,69.6-182.2,221.4-182.2c75.9,0,155.6,21.5,199.9,44.3c15.2,7.6,22.8,22.8,15.2,38l-45.5,93.6c-3.8,10.1-19,15.2-30.4,10.1
			c-39.2-19-89.8-35.4-136.6-35.4c-32.9,0-41.7,8.8-41.7,24c0,15.2,24,27.8,65.8,43c117.7,43,213.8,89.8,213.8,207.5
			c0,101.2-82.2,186-237.8,186C4613.5,2003.9,4537.5,1978.6,4499.6,1955.8z"/>
		<path class="st3" d="M4958.8,1128.4c0-12.6,11.4-24,24-24h150.6c13.9,0,24,11.4,24,24v318.8h361.8v-318.8c0-12.6,10.1-24,24-24
			h150.6c12.7,0,24,11.4,24,24V1966c0,12.7-11.4,24-24,24h-150.6c-13.9,0-24-11.4-24-24v-332.7h-361.8V1966c0,12.7-10.1,24-24,24
			h-150.6c-12.6,0-24-11.4-24-24V1128.4z"/>
		<path class="st2" d="M5757.1,1433.3c0-16.4,12.7-27.8,26.6-27.8h137.9c15.2,0,27.8,11.4,27.8,27.8v288.4
			c0,65.8,19,101.2,78.4,101.2c56.9,0,79.7-39.2,79.7-91.1v-298.6c0-24,17.7-27.8,31.6-27.8H6272c15.2,0,27.8,11.4,27.8,27.8v528.8
			c0,15.2-12.7,27.8-27.8,27.8h-58.2c-12.7,0-22.8-10.1-27.8-20.2l-20.2-54.4c-35.4,36.7-97.4,88.6-184.7,88.6
			c-170.8,0-223.9-112.6-223.9-278.3V1433.3z"/>
		<path class="st2" d="M6316.3,1132.2c0-13.9,12.6-27.8,27.8-27.8h136.6c15.2,0,27.8,13.9,27.8,27.8v298.6c19-15.2,75.9-38,135.4-38
			c155.6,0,289.7,98.7,289.7,304.9c0,167-124,306.2-288.4,306.2c-129.1,0-197.4-91.1-197.4-91.1l-16.4,48.1
			c-5.1,16.4-16.5,29.1-30.4,29.1h-56.9c-15.2,0-27.8-12.7-27.8-27.8V1132.2z M6618.7,1820.5c69.6,0,122.7-51.9,122.7-124
			c0-70.8-53.1-121.5-122.7-121.5c-72.1,0-124,50.6-124,121.5C6494.7,1768.6,6546.6,1820.5,6618.7,1820.5z"/>
	</g>
	<g>
		<path class="st2" d="M2601.4,2037.4c0-4.2,3.2-7.9,8.4-7.9h6.9c3.7,0,7.9,3.7,7.9,7.9v150.4c7.4-7.9,36.4-38,83.9-38
			c63.8,0,91.3,39.6,91.3,107.6v133.5c0,4.2-3.7,7.9-7.9,7.9h-7.4c-4.2,0-7.9-3.7-7.9-7.9v-133.5c0-56.5-22.2-84.9-69.1-84.9
			c-47,0-76,36.4-82.8,44.8v173.6c0,5.3-2.6,7.9-7.9,7.9h-8.4c-4.7,0-6.9-3.7-6.9-7.9V2037.4z"/>
		<path class="st2" d="M2992.3,2241.6c28,0,56.5,9,62.8,11.1c0-53.8-6.9-81.3-54.9-81.3c-40.1,0-68.1,14.8-72.8,16.4
			c-5.3,2.1-8.4,0-9.5-3.7l-2.6-7.4c-2.6-4.7,0.5-7.4,3.2-9c1.6-1.1,32.7-17.9,83.9-17.9c73.9,0,76,43.3,76,106.1v135.1
			c0,4.2-4.2,7.9-8.4,7.9h-4.2c-4.2,0-6.9-2.1-7.4-6.9l-2.6-22.2c-15.3,15.3-47,34.8-85.5,34.8c-45.4,0-79.1-30.6-79.1-80.7
			C2891,2276.9,2928.5,2241.6,2992.3,2241.6z M2972.8,2381.9c36.9,0,70.7-22.2,82.3-36.9v-70.2c-7.9-3.7-33.8-12.7-62.8-12.7
			c-46.4,0-78.6,25.3-78.6,61.2C2913.7,2358.2,2939,2381.9,2972.8,2381.9z"/>
		<path class="st2" d="M3214.5,2516.5c0,4.2-4.7,7.9-8.4,7.9h-6.9c-4.7,0-7.9-3.7-7.9-7.9V2163c0-5.3,4.2-7.9,8.4-7.9h3.2
			c4.2,0,6.3,1.6,6.9,6.3l2.1,16.9c7.4-5.8,37.5-28.5,82.3-28.5c67.5,0,115.5,55.4,115.5,126.6c0,71.8-50.7,128.2-121.4,128.2
			c-40.6,0-67-19.5-73.9-25.3V2516.5z M3287.8,2381.9c59.1,0,98.7-46.4,98.7-106.1c0-56.5-37.5-103.4-93.4-103.4
			c-47,0-75.5,28-78.6,32.2v147.7C3217.6,2355.6,3246.6,2381.9,3287.8,2381.9z"/>
		<path class="st2" d="M3531.6,2516.5c0,4.2-4.7,7.9-8.4,7.9h-6.9c-4.7,0-7.9-3.7-7.9-7.9V2163c0-5.3,4.2-7.9,8.4-7.9h3.2
			c4.2,0,6.3,1.6,6.9,6.3l2.1,16.9c7.4-5.8,37.5-28.5,82.3-28.5c67.5,0,115.5,55.4,115.5,126.6c0,71.8-50.7,128.2-121.4,128.2
			c-40.6,0-67-19.5-73.9-25.3V2516.5z M3604.9,2381.9c59.1,0,98.7-46.4,98.7-106.1c0-56.5-37.5-103.4-93.4-103.4
			c-47,0-75.5,28-78.6,32.2v147.7C3534.7,2355.6,3563.7,2381.9,3604.9,2381.9z"/>
		<path class="st2" d="M3795.9,2165.1c-2.1-5.3-1.6-10,3.7-10h11.1c3.7,0,6.9,1.6,8.4,5.8l86,210.5h1.6l89.7-210.5
			c1.6-4.2,4.7-5.8,7.9-5.8h11.6c5.8,0,6.3,4.7,3.7,10l-152.5,354.6c-1.6,3.2-5.3,4.7-7.9,4.7h-12.1c-5.3,0-7.4-2.6-4.7-8.4
			l50.7-117.7L3795.9,2165.1z"/>
		<path class="st2" d="M4255.5,2177.8h-29.5c-6.3,0-7.9-3.2-7.9-7.9v-8.4c0-4.7,3.2-6.3,7.9-6.3h29.5v-66.5c0-4.7,3.7-7.4,8.4-7.9
			l6.9-0.5c4.2-0.5,7.9,3.7,7.9,7.9v67h86c5.3,0,8.4,3.7,8.4,7.9v6.9c0,4.7-3.2,7.9-8.4,7.9h-86v159.3c0,31.7,5.3,44.8,33.2,44.8
			c26.9,0,48.5-14.8,55.9-19.5c5.8-3.2,7.9-0.5,9.5,2.1l4.2,7.4c2.1,4.2,1.1,6.9-2.1,9.5c-9,6.9-37.5,23.2-70.7,23.2
			c-45.4,0-53.3-30.1-53.3-64.9V2177.8z"/>
		<path class="st2" d="M4567.8,2149.8c68.1,0,122.4,57.5,122.4,126.6c0,71.2-54.3,128.2-122.4,128.2c-69.6,0-122.4-57-122.4-128.2
			C4445.4,2207.3,4498.2,2149.8,4567.8,2149.8z M4567.8,2381.9c54.3,0,97.6-47,97.6-105.5c0-57-43.3-103.9-97.6-103.9
			c-55.4,0-99.2,47-99.2,103.9C4468.6,2335,4512.4,2381.9,4567.8,2381.9z"/>
		<path class="st2" d="M4788.4,2163c0-4.2,3.2-7.9,7.9-7.9h4.2c3.7,0,5.3,2.1,5.8,6.3l3.2,25.9c6.9-9,31.7-37.5,80.7-37.5
			c37.5,0,59.1,15.8,75.5,43.3c7.4-9.5,35.4-43.3,85.5-43.3c66.5,0,88.1,44.8,88.1,107.6v133.5c0,4.2-3.2,7.9-7.9,7.9h-9
			c-3.7,0-6.3-2.6-6.3-7.9v-133.5c0-56.5-21.1-84.9-67-84.9c-45.4,0-67.5,33.2-75.5,42.7c3.7,12.7,4.7,25.9,4.7,42.2v133.5
			c0,4.2-4.2,7.9-7.9,7.9h-7.9c-4.7,0-7.4-2.6-7.4-7.9v-133.5c0-56.5-21.6-84.9-67.5-84.9c-49.6,0-73.3,36.4-76,41.7v176.8
			c0,5.3-2.6,7.9-7.9,7.9h-8.4c-4.7,0-6.9-3.7-6.9-7.9V2163z"/>
		<path class="st2" d="M5357.1,2149.8c68.1,0,122.4,57.5,122.4,126.6c0,71.2-54.3,128.2-122.4,128.2c-69.6,0-122.4-57-122.4-128.2
			C5234.7,2207.3,5287.5,2149.8,5357.1,2149.8z M5357.1,2381.9c54.3,0,97.6-47,97.6-105.5c0-57-43.3-103.9-97.6-103.9
			c-55.4,0-99.2,47-99.2,103.9C5257.9,2335,5301.7,2381.9,5357.1,2381.9z"/>
		<path class="st2" d="M5577.7,2163c0-4.2,3.2-7.9,7.9-7.9h3.7c3.7,0,6.3,2.1,6.9,6.9l2.6,24.8c6.3-8.4,32.2-36.9,77.6-36.9
			c19.5,0,33.2,5.3,38,6.9c5.3,1.6,7.9,6.3,6.3,11.1l-3.2,9.5c-1.6,4.7-5.8,5.3-10,3.2c-2.6-1.6-15.8-7.9-32.7-7.9
			c-47.5,0-72.3,38-73.9,41.7v176.8c0,5.3-2.6,7.9-7.9,7.9h-8.4c-4.7,0-6.9-3.7-6.9-7.9V2163z"/>
		<path class="st2" d="M5801.4,2163c0-4.2,3.2-7.9,7.9-7.9h3.7c3.7,0,6.3,2.1,6.9,6.9l2.6,24.8c6.3-8.4,32.2-36.9,77.6-36.9
			c19.5,0,33.2,5.3,38,6.9c5.3,1.6,7.9,6.3,6.3,11.1l-3.2,9.5c-1.6,4.7-5.8,5.3-10,3.2c-2.6-1.6-15.8-7.9-32.7-7.9
			c-47.5,0-72.3,38-73.9,41.7v176.8c0,5.3-2.6,7.9-7.9,7.9h-8.4c-4.7,0-6.9-3.7-6.9-7.9V2163z"/>
		<path class="st2" d="M6120.6,2149.8c68.1,0,122.4,57.5,122.4,126.6c0,71.2-54.3,128.2-122.4,128.2c-69.6,0-122.4-57-122.4-128.2
			C5998.2,2207.3,6051,2149.8,6120.6,2149.8z M6120.6,2381.9c54.3,0,97.6-47,97.6-105.5c0-57-43.3-103.9-97.6-103.9
			c-55.4,0-99.2,47-99.2,103.9C6021.4,2335,6065.2,2381.9,6120.6,2381.9z"/>
		<path class="st2" d="M6313.7,2165.1c-1.6-5.8-1.6-10,3.7-10h11.6c3.7,0,6.9,1.1,7.9,5.8l57.5,196.3h1.1l73.9-202.1
			c1.6-4.2,3.2-5.3,7.4-5.3h2.1c3.2,0,5.8,1.6,7.4,5.3l72.8,202.1h1.1l58-196.3c1.1-4.7,5.3-5.8,7.9-5.8h12.1c5.3,0,5.3,4.2,3.2,10
			l-72.8,233.7c-1.1,4.2-3.2,5.8-7.4,5.8h-2.1c-3.2,0-6.3-2.1-7.9-5.8l-72.8-207.9h-1.1l-73.3,207.9c-1.1,3.7-3.7,5.8-7.4,5.8h-2.1
			c-3.7,0-6.3-1.1-7.9-5.8L6313.7,2165.1z"/>
		<path class="st2" d="M6717.9,2368.8l4.7-8.4c2.1-3.7,6.9-4.2,11.1-1.1c6.3,5.3,32.2,23.7,66.5,23.7c36.9,0,60.7-17.9,60.7-43.8
			c0-28-29.5-41.2-70.7-56.5c-42.7-15.3-72.8-32.2-72.8-70.7c0-26.4,22.2-62.3,78.1-62.3c32.2,0,56.5,11.1,68.6,18.5
			c3.7,2.6,5.3,6.9,3.2,11.1l-3.2,5.8c-2.1,4.2-6.3,4.2-10.6,2.1c-5.8-3.2-32.2-15.8-58-15.8c-38.5,0-54.9,21.6-54.9,40.1
			c0,24.3,24.3,37.5,60.1,50.7c45.4,16.9,83.4,30.6,83.4,77c0,36.9-34.8,65.4-83.9,65.4c-41.2,0-66.5-16.9-79.7-26.9
			C6717.9,2375.6,6715.8,2372.4,6717.9,2368.8z"/>
	</g>
</g>
</svg>
